<?xml version="1.0"?>
<svg width="730" height="456" xmlns="http://www.w3.org/2000/svg" xmlns:svg="http://www.w3.org/2000/svg" preserveAspectRatio="xMidYMid meet" version="1.0">
 <g class="layer">
  <title>Layer 1</title>
  <g fill="#000000" id="svg_1" transform="matrix(0.120404 0 0 -0.120404 -1.67309 -1.05696)">
   <path d="m2916.78,-68c0,-6 78,-144 173,-308l172,-299l885,-5c877,-5 885,-5 937,-27c87,-35 138,-69 192,-129c93,-102 126,-196 119,-341c-5,-82 -10,-103 -41,-167c-65,-130 -188,-226 -325,-255c-35,-7 -251,-11 -638,-11c-358,0 -584,-4 -582,-9c2,-5 77,-145 168,-310l165,-301l431,0c490,0 505,-2 623,-81c75,-50 112,-93 159,-188c32,-65 37,-84 40,-166c10,-219 -104,-389 -314,-467c-57,-21 -75,-22 -499,-26c-242,-2 -477,-1 -522,3l-83,7l-102,177c-57,97 -456,790 -888,1539c-432,749 -787,1361 -790,1362c-3,0 -21,-28 -41,-63c-19,-34 -196,-341 -394,-682c-420,-728 -1527,-2645 -1631,-2825l-72,-125l708,-3c390,-1 1030,-1 1424,0l715,3l-165,285c-91,157 -172,295 -180,307l-14,23l-705,0c-388,0 -706,1 -707,2c-4,4 1055,1838 1062,1838c3,0 89,-145 191,-323c102,-177 421,-730 709,-1229l524,-908l712,0c773,0 805,2 956,56c346,125 597,395 695,750c25,90 28,115 28,269c0,147 -3,182 -24,260c-46,177 -132,339 -243,460l-50,55l48,52c130,144 225,341 259,537c100,567 -268,1113 -839,1244c-89,20 -118,21 -1168,24c-664,3 -1078,0 -1078,-5z" fill="#4154f1" id="svg_2"/>
  </g>
  <rect fill="#4154f1" height="0" id="svg_4" opacity="0.5" stroke="#000000" width="0" x="4" y="103"/>
 </g>
</svg>